<svg width="83" height="84" viewBox="0 0 83 84" fill="none" xmlns="http://www.w3.org/2000/svg">
<circle cx="40" cy="40.7612" r="40" fill="url(#paint0_linear_2202_3459)"/>
<g clip-path="url(#clip0_2202_3459)">
<path fill-rule="evenodd" clip-rule="evenodd" d="M57.0338 55.017C56.8736 56.4757 56.3542 57.5973 55.4646 58.3709C54.5805 59.1445 53.3981 59.5312 51.9283 59.5312C50.9006 59.5312 49.9889 59.2716 49.1987 58.7577C48.4086 58.2438 47.7953 57.5145 47.3643 56.5696C46.9333 55.6248 46.7123 54.5473 46.7068 53.3372V51.5359C46.7068 50.3038 46.9223 49.2097 47.3532 48.2594C47.7842 47.309 48.4031 46.5741 49.2153 46.0547C50.0276 45.5353 50.9558 45.2811 52.0112 45.2811C53.4975 45.2811 54.6689 45.679 55.5309 46.4802C56.3929 47.2814 56.8902 48.3864 57.0283 49.8065H55.8458C55.553 47.4526 54.2766 46.2702 52.0057 46.2702C50.7514 46.2702 49.7458 46.7399 48.9998 47.6792C48.2539 48.6185 47.8837 49.917 47.8837 51.5801V53.2765C47.8837 54.8788 48.2484 56.1552 48.9722 57.1056C49.7016 58.0615 50.6796 58.5367 51.9228 58.5367C53.166 58.5367 54.0722 58.2438 54.6966 57.6581C55.3209 57.0724 55.7022 56.1884 55.8514 55.017H57.0338ZM44.4579 53.1549C44.4579 54.4313 44.2369 55.5529 43.7949 56.5144C43.3528 57.4813 42.7229 58.2217 41.9052 58.7411C41.0874 59.2605 40.137 59.5202 39.0651 59.5202C37.4461 59.5202 36.1366 58.94 35.142 57.7797C34.1474 56.6193 33.6446 55.0556 33.6446 53.0886V51.663C33.6446 50.3977 33.8657 49.2816 34.3132 48.3036C34.7608 47.3311 35.3962 46.5796 36.214 46.0547C37.0317 45.5298 37.9766 45.2701 39.043 45.2701C40.1094 45.2701 41.0487 45.5298 41.8665 46.0437C42.6842 46.5575 43.3142 47.2869 43.7562 48.2262C44.2037 49.1655 44.4358 50.254 44.4524 51.4917V53.1494L44.4579 53.1549ZM43.2865 51.652C43.2865 49.9833 42.9108 48.6738 42.1538 47.7289C41.3968 46.7841 40.3636 46.3089 39.0485 46.3089C37.7335 46.3089 36.7334 46.7841 35.9653 47.7344C35.1973 48.6848 34.816 50.0109 34.816 51.7128V53.1604C34.816 54.807 35.1973 56.111 35.9598 57.0724C36.7223 58.0339 37.7556 58.5146 39.0651 58.5146C40.3746 58.5146 41.43 58.0394 42.1704 57.089C42.9163 56.1386 43.2865 54.8181 43.2865 53.1217V51.652ZM30.6996 55.9287C30.6996 55.1606 30.4288 54.5528 29.8873 54.1053C29.3458 53.6577 28.3623 53.2322 26.9257 52.8289C25.4891 52.4255 24.4448 51.989 23.7817 51.5083C22.8424 50.8342 22.3727 49.9501 22.3727 48.8616C22.3727 47.7731 22.8092 46.9388 23.6823 46.2757C24.5553 45.6127 25.6714 45.2811 27.0307 45.2811C27.9534 45.2811 28.7767 45.458 29.5006 45.8171C30.2299 46.1707 30.7935 46.668 31.1913 47.3035C31.5892 47.9389 31.7936 48.6461 31.7936 49.4252H30.6112C30.6112 48.4748 30.2852 47.7123 29.6387 47.1377C28.9922 46.563 28.1192 46.2757 27.0307 46.2757C25.9422 46.2757 25.1244 46.5133 24.5 46.9885C23.8701 47.4637 23.5552 48.0825 23.5552 48.8451C23.5552 49.5523 23.837 50.127 24.4006 50.569C24.9642 51.011 25.8703 51.4089 27.1136 51.7459C28.3568 52.0885 29.3016 52.4366 29.9426 52.8068C30.5835 53.1715 31.0698 53.608 31.3903 54.1163C31.7163 54.6247 31.8765 55.2269 31.8765 55.9176C31.8765 57.0116 31.44 57.8847 30.567 58.5477C29.6939 59.2108 28.5447 59.5368 27.1136 59.5368C26.1356 59.5368 25.2404 59.36 24.4227 59.0119C23.6049 58.6638 22.9861 58.172 22.5661 57.5421C22.1462 56.9122 21.9307 56.1939 21.9307 55.3816H23.1021C23.1021 56.3596 23.4668 57.1332 24.1961 57.6968C24.9255 58.2604 25.898 58.5422 27.1136 58.5422C28.191 58.5422 29.0585 58.3046 29.7105 57.8294C30.3625 57.3542 30.694 56.7188 30.694 55.9342M62.7416 32.9207H56.4426L55.017 36.8162H53.7904L59.0395 22.9473H60.1502L65.3993 36.8162H64.1782L62.7416 32.9207ZM56.8073 31.9317H62.3714L59.5921 24.3784L56.8128 31.9317H56.8073ZM45.9277 31.1692V36.8162H44.7563V22.9473H49.4805C50.9227 22.9473 52.0609 23.3175 52.8953 24.0524C53.7296 24.7873 54.1495 25.7985 54.1495 27.0914C54.1495 28.3844 53.7462 29.3955 52.945 30.1083C52.1438 30.8155 50.9779 31.1692 49.4529 31.1692H45.9277ZM45.9277 30.1801H49.4805C50.6188 30.1801 51.4807 29.9094 52.083 29.3679C52.6798 28.8264 52.9781 28.0749 52.9781 27.108C52.9781 26.141 52.6798 25.384 52.0885 24.8149C51.4973 24.2458 50.6519 23.953 49.5579 23.9419H45.9277V30.1801ZM42.1041 32.4953C41.9438 33.954 41.4244 35.0757 40.5349 35.8492C39.6508 36.6228 38.4683 37.0096 36.9986 37.0096C35.9708 37.0096 35.0591 36.7499 34.269 36.236C33.4789 35.7221 32.8655 34.9928 32.4346 34.0479C32.0036 33.1031 31.7826 32.0256 31.777 30.8155V29.0143C31.777 27.7821 31.9925 26.688 32.4235 25.7377C32.8545 24.7873 33.4789 24.0524 34.2856 23.533C35.0978 23.0136 36.0261 22.7595 37.0815 22.7595C38.5678 22.7595 39.7392 23.1573 40.6012 23.9585C41.4631 24.7597 41.9604 25.8648 42.0986 27.2848H40.9161C40.6233 24.931 39.3469 23.7485 37.0815 23.7485C35.8217 23.7485 34.8216 24.2182 34.0756 25.1575C33.3297 26.0968 32.9595 27.3953 32.9595 29.0529V30.7492C32.9595 32.3516 33.3242 33.628 34.048 34.5784C34.7773 35.5287 35.7554 36.0095 36.993 36.0095C38.2307 36.0095 39.1424 35.7166 39.7668 35.1309C40.3857 34.5452 40.7724 33.6611 40.9161 32.4898H42.0986L42.1041 32.4953ZM27.5445 36.8162H28.7159V22.9473H27.5445V36.8162ZM22.7871 32.9207H16.4937L15.0626 36.8162H13.8359L19.0796 22.9473H20.1957L25.4449 36.8162H24.2238L22.7871 32.9207ZM16.8528 31.9317H22.4169L19.6321 24.3784L16.8528 31.9317Z" fill="white"/>
<path d="M13.4062 41.3246H66.2626" stroke="white" stroke-width="0.143661" stroke-linecap="round" stroke-linejoin="round"/>
</g>
<rect x="56" y="56.7612" width="26" height="26" rx="13" fill="white"/>
<rect x="56" y="56.7612" width="26" height="26" rx="13" stroke="#080811" stroke-width="2"/>
<path d="M64.5 70.5112L67.5 73.5112L73.5 67.5112" stroke="#080811" stroke-width="2" stroke-linecap="round" stroke-linejoin="round"/>
<defs>
<linearGradient id="paint0_linear_2202_3459" x1="-27.5" y1="-42" x2="6.88165" y2="55.2074" gradientUnits="userSpaceOnUse">
<stop stop-color="#27B1FF"/>
<stop offset="1" stop-color="#213BE5"/>
</linearGradient>
<clipPath id="clip0_2202_3459">
<rect width="53" height="36.7718" fill="white" transform="translate(13.334 22.7612)"/>
</clipPath>
</defs>
</svg>
