<svg width="84" height="84" viewBox="0 0 84 84" fill="none" xmlns="http://www.w3.org/2000/svg">
<circle cx="40.3335" cy="40.7612" r="40" fill="url(#paint0_linear_2202_3474)"/>
<path d="M40.3335 9.96124L38.9738 14.1459L41.0661 14.8257" fill="#FFD232"/>
<path d="M40.3335 9.96124L41.6932 14.1459L39.6008 14.8257" fill="#FFD232"/>
<path d="M44.5181 13.0016H40.1181V15.2016" fill="#FFD232"/>
<path d="M44.5181 13.0016L40.9584 15.5878L39.6653 13.808" fill="#FFD232"/>
<path d="M42.9199 17.921L41.5602 13.7363L39.4679 14.4161" fill="#FFD232"/>
<path d="M42.9199 17.921L39.3602 15.3347L40.6534 13.5549" fill="#FFD232"/>
<path d="M37.7471 17.9209L41.3067 15.3346L40.0136 13.5548" fill="#FFD232"/>
<path d="M37.7471 17.9209L39.1067 13.7362L41.1991 14.4161" fill="#FFD232"/>
<path d="M36.1489 13.0016L39.7086 15.5878L41.0017 13.808" fill="#FFD232"/>
<path d="M36.1489 13.0016H40.5489V15.2016" fill="#FFD232"/>
<path d="M53.5332 13.4982L52.1735 17.6828L54.2659 18.3627" fill="#FFD232"/>
<path d="M53.5332 13.4982L54.8929 17.6828L52.8006 18.3627" fill="#FFD232"/>
<path d="M57.7178 16.5385H53.3178V18.7385" fill="#FFD232"/>
<path d="M57.7178 16.5385L54.1581 19.1248L52.865 17.3449" fill="#FFD232"/>
<path d="M56.1196 21.4579L54.76 17.2732L52.6676 17.9531" fill="#FFD232"/>
<path d="M56.1196 21.4579L52.56 18.8716L53.8531 17.0918" fill="#FFD232"/>
<path d="M50.9468 21.4578L54.5065 18.8716L53.2133 17.0917" fill="#FFD232"/>
<path d="M50.9468 21.4578L52.3065 17.2732L54.3988 17.953" fill="#FFD232"/>
<path d="M49.3486 16.5385L52.9083 19.1248L54.2014 17.3449" fill="#FFD232"/>
<path d="M49.3486 16.5385H53.7486V18.7385" fill="#FFD232"/>
<path d="M63.1963 23.1613L61.8366 27.3459L63.9289 28.0257" fill="#FFD232"/>
<path d="M63.1963 23.1613L64.556 27.3459L62.4636 28.0257" fill="#FFD232"/>
<path d="M67.3809 26.2016H62.9809V28.4016" fill="#FFD232"/>
<path d="M67.3809 26.2016L63.8212 28.7879L62.5281 27.008" fill="#FFD232"/>
<path d="M65.7827 31.121L64.423 26.9363L62.3307 27.6162" fill="#FFD232"/>
<path d="M65.7827 31.121L62.223 28.5347L63.5162 26.7549" fill="#FFD232"/>
<path d="M60.6099 31.1209L64.1695 28.5347L62.8764 26.7548" fill="#FFD232"/>
<path d="M60.6099 31.1209L61.9695 26.9363L64.0619 27.6161" fill="#FFD232"/>
<path d="M59.0117 26.2016L62.5714 28.7879L63.8645 27.008" fill="#FFD232"/>
<path d="M59.0117 26.2016H63.4117V28.4016" fill="#FFD232"/>
<path d="M66.7334 36.3612L65.3737 40.5459L67.466 41.2257" fill="#FFD232"/>
<path d="M66.7334 36.3612L68.0931 40.5459L66.0007 41.2257" fill="#FFD232"/>
<path d="M70.918 39.4016H66.518V41.6016" fill="#FFD232"/>
<path d="M70.918 39.4016L67.3583 41.9878L66.0652 40.208" fill="#FFD232"/>
<path d="M69.3198 44.3209L67.9601 40.1363L65.8678 40.8161" fill="#FFD232"/>
<path d="M69.3198 44.3209L65.7601 41.7347L67.0533 39.9548" fill="#FFD232"/>
<path d="M64.147 44.3209L67.7066 41.7346L66.4135 39.9548" fill="#FFD232"/>
<path d="M64.147 44.3209L65.5066 40.1362L67.599 40.8161" fill="#FFD232"/>
<path d="M62.5488 39.4016L66.1085 41.9878L67.4016 40.208" fill="#FFD232"/>
<path d="M62.5488 39.4016H66.9488V41.6016" fill="#FFD232"/>
<path d="M63.1963 49.5612L61.8366 53.7459L63.9289 54.4257" fill="#FFD232"/>
<path d="M63.1963 49.5612L64.556 53.7459L62.4636 54.4257" fill="#FFD232"/>
<path d="M67.3809 52.6016H62.9809V54.8016" fill="#FFD232"/>
<path d="M67.3809 52.6016L63.8212 55.1878L62.5281 53.408" fill="#FFD232"/>
<path d="M65.7827 57.5209L64.423 53.3363L62.3307 54.0161" fill="#FFD232"/>
<path d="M65.7827 57.5209L62.223 54.9347L63.5162 53.1548" fill="#FFD232"/>
<path d="M60.6099 57.5209L64.1695 54.9346L62.8764 53.1548" fill="#FFD232"/>
<path d="M60.6099 57.5209L61.9695 53.3362L64.0619 54.0161" fill="#FFD232"/>
<path d="M59.0117 52.6016L62.5714 55.1878L63.8645 53.408" fill="#FFD232"/>
<path d="M59.0117 52.6016H63.4117V54.8016" fill="#FFD232"/>
<path d="M53.5332 59.2243L52.1735 63.409L54.2659 64.0888" fill="#FFD232"/>
<path d="M53.5332 59.2243L54.8929 63.409L52.8006 64.0888" fill="#FFD232"/>
<path d="M57.7178 62.2646H53.3178V64.4646" fill="#FFD232"/>
<path d="M57.7178 62.2646L54.1581 64.8509L52.865 63.0711" fill="#FFD232"/>
<path d="M56.1196 67.184L54.76 62.9994L52.6676 63.6792" fill="#FFD232"/>
<path d="M56.1196 67.184L52.56 64.5978L53.8531 62.8179" fill="#FFD232"/>
<path d="M50.9468 67.184L54.5065 64.5977L53.2133 62.8179" fill="#FFD232"/>
<path d="M50.9468 67.184L52.3065 62.9993L54.3988 63.6791" fill="#FFD232"/>
<path d="M49.3486 62.2646L52.9083 64.8508L54.2014 63.071" fill="#FFD232"/>
<path d="M49.3486 62.2646H53.7486V64.4646" fill="#FFD232"/>
<path d="M40.3335 62.7612L38.9738 66.9459L41.0661 67.6257" fill="#FFD232"/>
<path d="M40.3335 62.7612L41.6932 66.9459L39.6008 67.6257" fill="#FFD232"/>
<path d="M44.5181 65.8016H40.1181V68.0016" fill="#FFD232"/>
<path d="M44.5181 65.8016L40.9584 68.3878L39.6653 66.608" fill="#FFD232"/>
<path d="M42.9199 70.7209L41.5602 66.5363L39.4679 67.2161" fill="#FFD232"/>
<path d="M42.9199 70.7209L39.3602 68.1347L40.6534 66.3549" fill="#FFD232"/>
<path d="M37.7471 70.7209L41.3067 68.1346L40.0136 66.3548" fill="#FFD232"/>
<path d="M37.7471 70.7209L39.1067 66.5362L41.1991 67.2161" fill="#FFD232"/>
<path d="M36.1489 65.8016L39.7086 68.3878L41.0017 66.608" fill="#FFD232"/>
<path d="M36.1489 65.8016H40.5489V68.0016" fill="#FFD232"/>
<path d="M27.1333 59.2243L25.7736 63.409L27.866 64.0888" fill="#FFD232"/>
<path d="M27.1333 59.2243L28.493 63.409L26.4007 64.0888" fill="#FFD232"/>
<path d="M31.3179 62.2646H26.9179V64.4646" fill="#FFD232"/>
<path d="M31.3179 62.2646L27.7582 64.8509L26.4651 63.0711" fill="#FFD232"/>
<path d="M29.7197 67.184L28.3601 62.9994L26.2677 63.6792" fill="#FFD232"/>
<path d="M29.7197 67.184L26.1601 64.5978L27.4532 62.8179" fill="#FFD232"/>
<path d="M24.5469 67.184L28.1065 64.5977L26.8134 62.8179" fill="#FFD232"/>
<path d="M24.5469 67.184L25.9065 62.9993L27.9989 63.6791" fill="#FFD232"/>
<path d="M22.9487 62.2646L26.5084 64.8508L27.8015 63.071" fill="#FFD232"/>
<path d="M22.9487 62.2646H27.3487V64.4646" fill="#FFD232"/>
<path d="M17.4702 49.5612L16.1105 53.7459L18.2029 54.4257" fill="#FFD232"/>
<path d="M17.4702 49.5612L18.8299 53.7459L16.7376 54.4257" fill="#FFD232"/>
<path d="M21.6548 52.6016H17.2548V54.8016" fill="#FFD232"/>
<path d="M21.6548 52.6016L18.0951 55.1878L16.802 53.408" fill="#FFD232"/>
<path d="M20.0566 57.5209L18.697 53.3363L16.6046 54.0161" fill="#FFD232"/>
<path d="M20.0566 57.5209L16.497 54.9347L17.7901 53.1548" fill="#FFD232"/>
<path d="M14.8838 57.5209L18.4435 54.9346L17.1503 53.1548" fill="#FFD232"/>
<path d="M14.8838 57.5209L16.2435 53.3362L18.3358 54.0161" fill="#FFD232"/>
<path d="M13.2856 52.6016L16.8453 55.1878L18.1384 53.408" fill="#FFD232"/>
<path d="M13.2856 52.6016H17.6856V54.8016" fill="#FFD232"/>
<path d="M13.9331 36.3612L12.5734 40.5459L14.6658 41.2257" fill="#FFD232"/>
<path d="M13.9331 36.3612L15.2928 40.5459L13.2005 41.2257" fill="#FFD232"/>
<path d="M18.1177 39.4016H13.7177V41.6016" fill="#FFD232"/>
<path d="M18.1177 39.4016L14.558 41.9878L13.2649 40.208" fill="#FFD232"/>
<path d="M16.5195 44.3209L15.1599 40.1363L13.0675 40.8161" fill="#FFD232"/>
<path d="M16.5195 44.3209L12.9599 41.7347L14.253 39.9548" fill="#FFD232"/>
<path d="M11.3467 44.3209L14.9064 41.7346L13.6132 39.9548" fill="#FFD232"/>
<path d="M11.3467 44.3209L12.7064 40.1362L14.7987 40.8161" fill="#FFD232"/>
<path d="M9.74854 39.4016L13.3082 41.9878L14.6013 40.208" fill="#FFD232"/>
<path d="M9.74854 39.4016H14.1485V41.6016" fill="#FFD232"/>
<path d="M17.4702 23.1613L16.1105 27.3459L18.2029 28.0257" fill="#FFD232"/>
<path d="M17.4702 23.1613L18.8299 27.3459L16.7376 28.0257" fill="#FFD232"/>
<path d="M21.6548 26.2016H17.2548V28.4016" fill="#FFD232"/>
<path d="M21.6548 26.2016L18.0951 28.7879L16.802 27.008" fill="#FFD232"/>
<path d="M20.0566 31.121L18.697 26.9363L16.6046 27.6162" fill="#FFD232"/>
<path d="M20.0566 31.121L16.497 28.5347L17.7901 26.7549" fill="#FFD232"/>
<path d="M14.8838 31.1209L18.4435 28.5347L17.1503 26.7548" fill="#FFD232"/>
<path d="M14.8838 31.1209L16.2435 26.9363L18.3358 27.6161" fill="#FFD232"/>
<path d="M13.2856 26.2016L16.8453 28.7879L18.1384 27.008" fill="#FFD232"/>
<path d="M13.2856 26.2016H17.6856V28.4016" fill="#FFD232"/>
<path d="M27.1333 13.4982L25.7736 17.6828L27.866 18.3627" fill="#FFD232"/>
<path d="M27.1333 13.4982L28.493 17.6828L26.4007 18.3627" fill="#FFD232"/>
<path d="M31.3179 16.5385H26.9179V18.7385" fill="#FFD232"/>
<path d="M31.3179 16.5385L27.7582 19.1248L26.4651 17.3449" fill="#FFD232"/>
<path d="M29.7197 21.4579L28.3601 17.2732L26.2677 17.9531" fill="#FFD232"/>
<path d="M29.7197 21.4579L26.1601 18.8716L27.4532 17.0918" fill="#FFD232"/>
<path d="M24.5469 21.4578L28.1065 18.8716L26.8134 17.0917" fill="#FFD232"/>
<path d="M24.5469 21.4578L25.9065 17.2732L27.9989 17.953" fill="#FFD232"/>
<path d="M22.9487 16.5385L26.5084 19.1248L27.8015 17.3449" fill="#FFD232"/>
<path d="M22.9487 16.5385H27.3487V18.7385" fill="#FFD232"/>
<rect x="56.3335" y="56.7612" width="26" height="26" rx="13" fill="white"/>
<rect x="56.3335" y="56.7612" width="26" height="26" rx="13" stroke="#080811" stroke-width="2"/>
<path d="M64.8335 70.5112L67.8335 73.5112L73.8335 67.5112" stroke="#080811" stroke-width="2" stroke-linecap="round" stroke-linejoin="round"/>
<defs>
<linearGradient id="paint0_linear_2202_3474" x1="-27.1665" y1="-42" x2="7.21514" y2="55.2074" gradientUnits="userSpaceOnUse">
<stop stop-color="#27B1FF"/>
<stop offset="1" stop-color="#213BE5"/>
</linearGradient>
</defs>
</svg>
